<svg width="68" height="86" viewBox="0 0 68 86" fill="none" xmlns="http://www.w3.org/2000/svg">
<path fill-rule="evenodd" clip-rule="evenodd" d="M12 0C18.6274 0 24 5.37258 24 12L24 74C24 80.6274 18.6274 86 12 86C5.37259 86 2.9998e-06 80.6274 2.71011e-06 74L0 12C0 5.37258 5.37258 0 12 0ZM22 12C22 17.5228 17.5228 22 12 22C6.47715 22 2 17.5228 2 12C2 6.47715 6.47715 2 12 2C17.5228 2 22 6.47715 22 12ZM12 54C16.9706 54 21 49.9706 21 45C21 40.0294 16.9706 36 12 36C7.02944 36 3 40.0294 3 45C3 49.9706 7.02944 54 12 54Z" fill="#7253C6"/>
<path d="M41 45H17" stroke="#8E6FE2" stroke-width="18" stroke-linecap="round"/>
<path d="M58 12L22 12" stroke="#8E6FE2" stroke-width="20" stroke-linecap="round"/>
</svg>
