<svg width="287" height="160" viewBox="0 0 287 160" fill="none" xmlns="http://www.w3.org/2000/svg">
<path d="M53.7397 81.035C54.9011 81.035 55.8426 80.0935 55.8426 78.9321C55.8426 77.7706 54.9011 76.8291 53.7397 76.8291C52.5782 76.8291 51.6367 77.7706 51.6367 78.9321C51.6367 80.0935 52.5782 81.035 53.7397 81.035Z" fill="#a4a1ab"/>
<path d="M70.1692 67.3658C70.8225 67.3658 71.3522 66.8362 71.3522 66.1829C71.3522 65.5296 70.8225 65 70.1692 65C69.5159 65 68.9863 65.5296 68.9863 66.1829C68.9863 66.8362 69.5159 67.3658 70.1692 67.3658Z" fill="#a4a1ab"/>
<path d="M74.2431 99.4353C74.969 99.4353 75.5574 98.8469 75.5574 98.121C75.5574 97.3951 74.969 96.8066 74.2431 96.8066C73.5172 96.8066 72.9287 97.3951 72.9287 98.121C72.9287 98.8469 73.5172 99.4353 74.2431 99.4353Z" fill="#a4a1ab"/>
<path d="M45.4458 116.892C46.2442 116.892 46.8915 116.245 46.8915 115.446C46.8915 114.648 46.2442 114 45.4458 114C44.6473 114 44 114.648 44 115.446C44 116.245 44.6473 116.892 45.4458 116.892Z" fill="#a4a1ab"/>
<path d="M96.4555 123.883C97.254 123.883 97.9013 123.235 97.9013 122.437C97.9013 121.639 97.254 120.991 96.4555 120.991C95.6571 120.991 95.0098 121.639 95.0098 122.437C95.0098 123.235 95.6571 123.883 96.4555 123.883Z" fill="#a4a1ab"/>
<path d="M158.887 123.357C159.758 123.357 160.464 122.65 160.464 121.779C160.464 120.908 159.758 120.202 158.887 120.202C158.016 120.202 157.31 120.908 157.31 121.779C157.31 122.65 158.016 123.357 158.887 123.357Z" fill="#a4a1ab"/>
<path d="M184.78 89.4463C185.578 89.4463 186.226 88.799 186.226 88.0005C186.226 87.202 185.578 86.5547 184.78 86.5547C183.981 86.5547 183.334 87.202 183.334 88.0005C183.334 88.799 183.981 89.4463 184.78 89.4463Z" fill="#a4a1ab"/>
<path d="M204.627 69.4682C205.207 69.4682 205.678 68.9974 205.678 68.4167C205.678 67.836 205.207 67.3652 204.627 67.3652C204.046 67.3652 203.575 67.836 203.575 68.4167C203.575 68.9974 204.046 69.4682 204.627 69.4682Z" fill="#a4a1ab"/>
<path d="M220.793 74.2002C221.592 74.2002 222.239 73.5529 222.239 72.7544C222.239 71.9559 221.592 71.3086 220.793 71.3086C219.995 71.3086 219.348 71.9559 219.348 72.7544C219.348 73.5529 219.995 74.2002 220.793 74.2002Z" fill="#a4a1ab"/>
<path d="M232.754 55.7996C233.48 55.7996 234.068 55.2111 234.068 54.4852C234.068 53.7594 233.48 53.1709 232.754 53.1709C232.028 53.1709 231.439 53.7594 231.439 54.4852C231.439 55.2111 232.028 55.7996 232.754 55.7996Z" fill="#a4a1ab"/>
<path d="M230.388 109.162C231.113 109.162 231.702 108.573 231.702 107.848C231.702 107.122 231.113 106.533 230.388 106.533C229.662 106.533 229.073 107.122 229.073 107.848C229.073 108.573 229.662 109.162 230.388 109.162Z" fill="#a4a1ab"/>
<path d="M208.701 125.46C209.499 125.46 210.146 124.813 210.146 124.014C210.146 123.216 209.499 122.568 208.701 122.568C207.902 122.568 207.255 123.216 207.255 124.014C207.255 124.813 207.902 125.46 208.701 125.46Z" fill="#a4a1ab"/>
<path d="M129.971 106.796C131.278 106.796 132.337 105.737 132.337 104.43C132.337 103.124 131.278 102.064 129.971 102.064C128.665 102.064 127.605 103.124 127.605 104.43C127.605 105.737 128.665 106.796 129.971 106.796Z" fill="#a4a1ab"/>
<path d="M141.538 81.0344C142.844 81.0344 143.904 79.9752 143.904 78.6686C143.904 77.3619 142.844 76.3027 141.538 76.3027C140.231 76.3027 139.172 77.3619 139.172 78.6686C139.172 79.9752 140.231 81.0344 141.538 81.0344Z" fill="#a4a1ab"/>
<path d="M171.768 69.7316C173.075 69.7316 174.134 68.6724 174.134 67.3658C174.134 66.0592 173.075 65 171.768 65C170.462 65 169.402 66.0592 169.402 67.3658C169.402 68.6724 170.462 69.7316 171.768 69.7316Z" fill="#a4a1ab"/>
<path d="M171.637 105.482C173.016 105.482 174.134 104.364 174.134 102.985C174.134 101.605 173.016 100.487 171.637 100.487C170.258 100.487 169.14 101.605 169.14 102.985C169.14 104.364 170.258 105.482 171.637 105.482Z" fill="#a4a1ab"/>
<path d="M197.398 102.064C198.777 102.064 199.895 100.946 199.895 99.5666C199.895 98.1874 198.777 97.0693 197.398 97.0693C196.018 97.0693 194.9 98.1874 194.9 99.5666C194.9 100.946 196.018 102.064 197.398 102.064Z" fill="#a4a1ab"/>
<path d="M120.246 91.2863C121.552 91.2863 122.612 90.2271 122.612 88.9205C122.612 87.6139 121.552 86.5547 120.246 86.5547C118.939 86.5547 117.88 87.6139 117.88 88.9205C117.88 90.2271 118.939 91.2863 120.246 91.2863Z" fill="#a4a1ab"/>
<path d="M135.492 112.316C136.798 112.316 137.858 111.256 137.858 109.95C137.858 108.643 136.798 107.584 135.492 107.584C134.185 107.584 133.126 108.643 133.126 109.95C133.126 111.256 134.185 112.316 135.492 112.316Z" fill="#a4a1ab"/>
<path d="M152.579 94.1779C153.885 94.1779 154.945 93.1187 154.945 91.8121C154.945 90.5055 153.885 89.4463 152.579 89.4463C151.272 89.4463 150.213 90.5055 150.213 91.8121C150.213 93.1187 151.272 94.1779 152.579 94.1779Z" fill="#a4a1ab"/>
<path d="M91.461 100.487C92.695 100.487 93.6953 99.487 93.6953 98.2529C93.6953 97.0189 92.695 96.0186 91.461 96.0186C90.2269 96.0186 89.2266 97.0189 89.2266 98.2529C89.2266 99.487 90.2269 100.487 91.461 100.487Z" fill="#a4a1ab"/>
<path d="M114.07 71.8262C115.304 71.8262 116.305 70.8258 116.305 69.5918C116.305 68.3578 115.304 67.3574 114.07 67.3574C112.836 67.3574 111.836 68.3578 111.836 69.5918C111.836 70.8258 112.836 71.8262 114.07 71.8262Z" fill="#a4a1ab"/>
<path d="M45.1621 115.573L53.7395 78.9316L90.5412 98.384L119.983 88.9207L129.972 104.43L135.492 110.739L152.578 91.5494L171.505 103.378L197.003 99.4354" stroke="#a4a1ab" stroke-width="0.788608" stroke-linecap="round" stroke-linejoin="round"/>
<path d="M121 88.931L141.217 78.3926L171.768 67.3652" stroke="#a4a1ab" stroke-width="0.788608" stroke-miterlimit="10"/>
<path d="M92.7757 54.485C93.429 54.485 93.9586 53.9554 93.9586 53.3021C93.9586 52.6487 93.429 52.1191 92.7757 52.1191C92.1224 52.1191 91.5928 52.6487 91.5928 53.3021C91.5928 53.9554 92.1224 54.485 92.7757 54.485Z" fill="#a4a1ab"/>
<path d="M178.602 33.7182C179.183 33.7182 179.654 33.2474 179.654 32.6667C179.654 32.086 179.183 31.6152 178.602 31.6152C178.022 31.6152 177.551 32.086 177.551 32.6667C177.551 33.2474 178.022 33.7182 178.602 33.7182Z" fill="#a4a1ab"/>
<path d="M115.908 59.7418C116.562 59.7418 117.091 59.2122 117.091 58.5589C117.091 57.9056 116.562 57.376 115.908 57.376C115.255 57.376 114.726 57.9056 114.726 58.5589C114.726 59.2122 115.255 59.7418 115.908 59.7418Z" fill="#a4a1ab"/>
<path d="M153.104 52.1186C153.685 52.1186 154.156 51.6478 154.156 51.0671C154.156 50.4864 153.685 50.0156 153.104 50.0156C152.523 50.0156 152.053 50.4864 152.053 51.0671C152.053 51.6478 152.523 52.1186 153.104 52.1186Z" fill="#a4a1ab"/>
<path d="M90.9357 78.9319C91.4438 78.9319 91.8557 78.52 91.8557 78.0118C91.8557 77.5037 91.4438 77.0918 90.9357 77.0918C90.4275 77.0918 90.0156 77.5037 90.0156 78.0118C90.0156 78.52 90.4275 78.9319 90.9357 78.9319Z" fill="#a4a1ab"/>
<path d="M195.163 42.6554C196.034 42.6554 196.74 41.9493 196.74 41.0782C196.74 40.2071 196.034 39.501 195.163 39.501C194.292 39.501 193.586 40.2071 193.586 41.0782C193.586 41.9493 194.292 42.6554 195.163 42.6554Z" fill="#a4a1ab"/>
<path d="M165.196 56.5882C165.777 56.5882 166.247 56.1175 166.247 55.5368C166.247 54.9561 165.777 54.4854 165.196 54.4854C164.615 54.4854 164.145 54.9561 164.145 55.5368C164.145 56.1175 164.615 56.5882 165.196 56.5882Z" fill="#a4a1ab"/>
<path d="M58.997 52.1189C59.7229 52.1189 60.3113 51.5305 60.3113 50.8046C60.3113 50.0787 59.7229 49.4902 58.997 49.4902C58.2711 49.4902 57.6826 50.0787 57.6826 50.8046C57.6826 51.5305 58.2711 52.1189 58.997 52.1189Z" fill="#a4a1ab"/>
<path d="M215.667 90.2351C216.393 90.2351 216.981 89.6467 216.981 88.9208C216.981 88.1949 216.393 87.6064 215.667 87.6064C214.941 87.6064 214.353 88.1949 214.353 88.9208C214.353 89.6467 214.941 90.2351 215.667 90.2351Z" fill="#a4a1ab"/>
<path d="M230.388 107.847L215.667 88.9208L220.662 72.6229L204.627 68.417" stroke="#a4a1ab" stroke-width="0.788608" stroke-miterlimit="10"/>
<path d="M114.07 69.5918L119.982 88.9206" stroke="#a4a1ab" stroke-width="0.788608" stroke-linecap="round" stroke-linejoin="round"/>
</svg>
